<svg width="75" height="101" viewBox="0 0 75 101" fill="none" xmlns="http://www.w3.org/2000/svg">
<path d="M8.36679e-07 12.5V96.875C-0.000396211 97.4177 0.140528 97.9511 0.408904 98.4227C0.677279 98.8944 1.06385 99.288 1.53057 99.5649C1.99729 99.8418 2.52807 99.9924 3.07066 100.002C3.61324 100.011 4.14894 99.8792 4.625 99.6188L37.5 81.6813L70.375 99.6188C70.8511 99.8792 71.3868 100.011 71.9293 100.002C72.4719 99.9924 73.0027 99.8418 73.4694 99.5649C73.9361 99.288 74.3227 98.8944 74.5911 98.4227C74.8595 97.9511 75.0004 97.4177 75 96.875V12.5C75 9.18479 73.683 6.00537 71.3388 3.66117C68.9946 1.31696 65.8152 0 62.5 0L12.5 0C9.1848 0 6.00537 1.31696 3.66117 3.66117C1.31696 6.00537 8.36679e-07 9.18479 8.36679e-07 12.5Z" fill="#61748B"/>
</svg>
