<svg width="39" height="52" viewBox="0 0 39 52" fill="none" xmlns="http://www.w3.org/2000/svg">
<path fill-rule="evenodd" clip-rule="evenodd" d="M28.5194 16.4772C28.6717 16.6281 28.7926 16.8073 28.8751 17.0046C28.9575 17.202 29 17.4135 29 17.6272C29 17.8408 28.9575 18.0524 28.8751 18.2497C28.7926 18.447 28.6717 18.6263 28.5194 18.7772L18.7039 28.5228C18.552 28.6741 18.3714 28.7941 18.1727 28.876C17.974 28.9579 17.7609 29 17.5457 29C17.3305 29 17.1175 28.9579 16.9187 28.876C16.72 28.7941 16.5394 28.6741 16.3875 28.5228L11.4798 23.65C11.3277 23.499 11.207 23.3197 11.1247 23.1224C11.0424 22.9251 11 22.7136 11 22.5C11 22.2864 11.0424 22.0749 11.1247 21.8776C11.207 21.6803 11.3277 21.501 11.4798 21.35C11.6319 21.199 11.8124 21.0792 12.0112 20.9975C12.2099 20.9157 12.4229 20.8737 12.638 20.8737C12.8531 20.8737 13.0661 20.9157 13.2648 20.9975C13.4635 21.0792 13.6441 21.199 13.7962 21.35L17.5457 25.0761L26.2029 16.4772C26.3549 16.3259 26.5354 16.2059 26.7342 16.124C26.9329 16.0421 27.146 16 27.3612 16C27.5763 16 27.7894 16.0421 27.9882 16.124C28.1869 16.2059 28.3674 16.3259 28.5194 16.4772Z" fill="#F0E29C"/>
<path d="M0 6.5001C0 4.77617 0.684819 3.12284 1.90381 1.90384C3.12279 0.684831 4.77609 0 6.5 0L32.5 0C34.2239 0 35.8772 0.684831 37.0962 1.90384C38.3152 3.12284 39 4.77617 39 6.5001V50.3758C38.9998 50.6698 38.92 50.9582 38.7689 51.2103C38.6178 51.4624 38.4011 51.6688 38.142 51.8076C37.8829 51.9463 37.591 52.0122 37.2974 51.9981C37.0037 51.9841 36.7195 51.8907 36.4747 51.7278L19.5 42.5789L2.52525 51.7278C2.28054 51.8907 1.99625 51.9841 1.70265 51.9981C1.40905 52.0122 1.11713 51.9463 0.857998 51.8076C0.598864 51.6688 0.382213 51.4624 0.231121 51.2103C0.0800281 50.9582 0.000151841 50.6698 0 50.3758V6.5001ZM6.5 3.25005C5.63805 3.25005 4.8114 3.59247 4.2019 4.20197C3.59241 4.81147 3.25 5.63814 3.25 6.5001V47.3403L18.5998 39.2736C18.8664 39.0962 19.1796 39.0015 19.5 39.0015C19.8204 39.0015 20.1336 39.0962 20.4003 39.2736L35.75 47.3403V6.5001C35.75 5.63814 35.4076 4.81147 34.7981 4.20197C34.1886 3.59247 33.362 3.25005 32.5 3.25005H6.5Z" fill="#F0E29C"/>
</svg>
