<svg width="36" height="20" viewBox="0 0 36 20" fill="none" xmlns="http://www.w3.org/2000/svg">
<path fill-rule="evenodd" clip-rule="evenodd" d="M35.5933 0.419589C35.7222 0.552257 35.8245 0.709861 35.8943 0.883374C35.9641 1.05689 36 1.2429 36 1.43076C36 1.61862 35.9641 1.80463 35.8943 1.97814C35.8245 2.15166 35.7222 2.30926 35.5933 2.44193L18.9798 19.5804C18.8512 19.7134 18.6984 19.8189 18.5303 19.8909C18.3621 19.9629 18.1817 20 17.9996 20C17.8175 20 17.6372 19.9629 17.469 19.8909C17.3008 19.8189 17.148 19.7134 17.0194 19.5804L0.40601 2.44193C0.146046 2.17375 -7.91186e-08 1.81002 -6.25405e-08 1.43076C-4.59624e-08 1.0515 0.146046 0.687766 0.40601 0.419587C0.665974 0.151408 1.01856 0.000746233 1.3862 0.000746249C1.75385 0.000746265 2.10643 0.151408 2.36639 0.419587L17.9996 16.5498L33.6329 0.419588C33.7615 0.286585 33.9143 0.18106 34.0825 0.10906C34.2507 0.0370601 34.431 -6.85845e-08 34.6131 -6.06245e-08C34.7952 -5.26645e-08 34.9755 0.0370601 35.1437 0.10906C35.3119 0.18106 35.4647 0.286585 35.5933 0.419589Z" fill="#164783"/>
</svg>
