<svg width="20" height="36" viewBox="0 0 20 36" fill="none" xmlns="http://www.w3.org/2000/svg">
<path fill-rule="evenodd" clip-rule="evenodd" d="M0.419589 0.406735C0.552257 0.277806 0.709861 0.175515 0.883374 0.10572C1.05689 0.0359262 1.2429 0 1.43076 0C1.61862 0 1.80463 0.0359262 1.97814 0.10572C2.15166 0.175515 2.30926 0.277806 2.44193 0.406735L19.5804 17.0202C19.7134 17.1488 19.8189 17.3015 19.8909 17.4697C19.9629 17.6379 20 17.8183 20 18.0004C20 18.1825 19.9629 18.3628 19.8909 18.531C19.8189 18.6992 19.7134 18.852 19.5804 18.9806L2.44193 35.594C2.17375 35.854 1.81002 36 1.43076 36C1.0515 36 0.687768 35.854 0.419589 35.594C0.15141 35.334 0.000747762 34.9814 0.000747762 34.6138C0.000747762 34.2462 0.15141 33.8936 0.419589 33.6336L16.5498 18.0004L0.419589 2.36712C0.286585 2.23852 0.18106 2.08574 0.10906 1.91754C0.0370602 1.74935 0 1.56903 0 1.38693C0 1.20482 0.0370602 1.02451 0.10906 0.856313C0.18106 0.688115 0.286585 0.535339 0.419589 0.406735Z" fill="#164783"/>
</svg>
